<?xml version="1.0" encoding="UTF-8" standalone="no"?>
<svg
   xmlns:dc="http://purl.org/dc/elements/1.1/"
   xmlns:cc="http://creativecommons.org/ns#"
   xmlns:rdf="http://www.w3.org/1999/02/22-rdf-syntax-ns#"
   xmlns:svg="http://www.w3.org/2000/svg"
   xmlns="http://www.w3.org/2000/svg"
   xmlns:xlink="http://www.w3.org/1999/xlink"
   xmlns:sodipodi="http://sodipodi.sourceforge.net/DTD/sodipodi-0.dtd"
   xmlns:inkscape="http://www.inkscape.org/namespaces/inkscape"
   version="1.1"
   id="图层_1"
   x="0px"
   y="0px"
   viewBox="0 0 1024 1024"
   xml:space="preserve"
   sodipodi:docname="app.svg"
   width="1024"
   height="1024"
   inkscape:version="1.0.1 (3bc2e813f5, 2020-09-07, custom)"><metadata
   id="metadata69"><rdf:RDF><cc:Work
       rdf:about=""><dc:format>image/svg+xml</dc:format><dc:type
         rdf:resource="http://purl.org/dc/dcmitype/StillImage" /><dc:title></dc:title></cc:Work></rdf:RDF></metadata><defs
   id="defs67" /><sodipodi:namedview
   pagecolor="#ffffff"
   bordercolor="#666666"
   borderopacity="1"
   objecttolerance="10"
   gridtolerance="10"
   guidetolerance="10"
   inkscape:pageopacity="0"
   inkscape:pageshadow="2"
   inkscape:window-width="1916"
   inkscape:window-height="1041"
   id="namedview65"
   showgrid="false"
   fit-margin-top="0"
   fit-margin-left="0"
   fit-margin-right="0"
   fit-margin-bottom="0"
   inkscape:zoom="0.37699971"
   inkscape:cx="23.709438"
   inkscape:cy="475.71653"
   inkscape:window-x="0"
   inkscape:window-y="18"
   inkscape:window-maximized="0"
   inkscape:current-layer="图层_1"
   inkscape:document-rotation="0" />
<style
   type="text/css"
   id="style2">
	.st0{clip-path:url(#SVGID_2_);}
	.st1{clip-path:url(#SVGID_4_);}
</style>

<g
   id="g62"
   transform="matrix(1.0001172,0,0,1.0001172,-902.22573,256.39005)">
	<defs
   id="defs35">
		<path
   id="SVGID_3_"
   d="m 1661,767.52 h -493.88 c -146.36,0 -265,-118.64 -265,-265 V 8.64 c 0,-146.36 118.64,-265 265,-265 H 1661 c 146.36,0 265,118.64 265,265 v 493.88 c 0,146.36 -118.64,265 -265,265 z" />
	</defs>
	<use
   xlink:href="#SVGID_3_"
   style="overflow:visible;fill:#e2e1de"
   id="use37"
   x="0"
   y="0"
   width="100%"
   height="100%" />
	<clipPath
   id="SVGID_4_">
		<use
   xlink:href="#SVGID_3_"
   style="overflow:visible"
   id="use39"
   x="0"
   y="0"
   width="100%"
   height="100%" />
	</clipPath>
	<g
   class="st1"
   clip-path="url(#SVGID_4_)"
   id="g60">
		<path
   d="M 1727.68,554.03 V 232.36 c 0,-0.8 -0.08,-1.58 -0.16,-2.37 -0.02,-0.19 -0.01,-0.39 -0.04,-0.58 -0.17,-1.3 -0.48,-2.56 -0.86,-3.8 -0.1,-0.33 -0.22,-0.66 -0.34,-0.98 -0.46,-1.28 -0.99,-2.54 -1.67,-3.72 0,0 0,-0.01 -0.01,-0.01 0,-0.01 -0.01,-0.01 -0.01,-0.01 -0.68,-1.17 -1.49,-2.25 -2.37,-3.29 -0.23,-0.28 -0.47,-0.55 -0.71,-0.82 -0.87,-0.94 -1.8,-1.83 -2.83,-2.62 -0.18,-0.14 -0.38,-0.24 -0.56,-0.37 -0.62,-0.45 -1.25,-0.9 -1.92,-1.28 L 1437.63,51.66 c -7.1,-4.1 -15.84,-4.1 -22.94,0 L 1136.11,212.5 c -0.67,0.39 -1.29,0.83 -1.91,1.28 -0.18,0.13 -0.38,0.24 -0.56,0.38 -1.03,0.79 -1.96,1.68 -2.84,2.62 -0.24,0.26 -0.48,0.53 -0.71,0.81 -0.88,1.04 -1.69,2.12 -2.37,3.29 0,0.01 -0.01,0.01 -0.01,0.01 0,0 0,0.01 -0.01,0.01 -0.68,1.18 -1.21,2.43 -1.67,3.72 -0.12,0.33 -0.23,0.65 -0.33,0.98 -0.38,1.24 -0.69,2.5 -0.86,3.8 -0.03,0.19 -0.02,0.38 -0.04,0.58 -0.08,0.79 -0.16,1.57 -0.16,2.37 v 321.67 c 0,8.19 4.37,15.77 11.47,19.87 l 278.58,160.84 c 0.69,0.4 1.4,0.72 2.12,1.04 0.18,0.08 0.35,0.19 0.54,0.27 1.21,0.5 2.46,0.87 3.72,1.15 0.34,0.08 0.68,0.14 1.03,0.2 1.35,0.24 2.7,0.41 4.07,0.41 1.36,0 2.72,-0.17 4.07,-0.41 0.35,-0.06 0.69,-0.13 1.03,-0.2 1.26,-0.29 2.51,-0.65 3.72,-1.15 0.19,-0.08 0.36,-0.18 0.54,-0.27 0.72,-0.32 1.43,-0.65 2.12,-1.04 l 278.58,-160.84 c 7.08,-4.09 11.45,-11.66 11.45,-19.86 z m -301.52,-456.02 81.12,46.83 -232.69,134.35 -81.12,-46.83 z m -22.94,577.13 -232.7,-134.35 v -268.7 l 85.95,49.62 v 111.36 c 0,12.67 10.27,22.94 22.94,22.94 12.67,0 22.94,-10.27 22.94,-22.94 V 348.2 l 100.87,58.24 z m 22.94,-308.44 -105.7,-61.02 232.69,-134.35 105.7,61.03 z M 1681.8,540.79 1449.1,675.14 V 406.44 L 1681.8,272.1 Z"
   id="path42" />
		<g
   id="g46">
			<path
   d="m 1193.47,95.22 c -10.12,0 -18.33,-8.21 -18.33,-18.33 v -795.64 c 0,-10.12 8.21,-18.33 18.33,-18.33 10.12,0 18.33,8.21 18.33,18.33 V 76.89 c 0,10.12 -8.21,18.33 -18.33,18.33 z"
   id="path44" />
		</g>
		<g
   id="g50">
			<path
   d="m 1643.14,85.02 c -10.12,0 -18.33,-8.21 -18.33,-18.33 v -795.64 c 0,-10.12 8.21,-18.33 18.33,-18.33 10.12,0 18.33,8.21 18.33,18.33 V 66.68 c 0,10.13 -8.2,18.34 -18.33,18.34 z"
   id="path48" />
		</g>
		<g
   id="g54">
			<path
   d="m 1583.78,41.73 c -10.12,0 -18.33,-8.21 -18.33,-18.33 v -516.34 c 0,-10.12 8.21,-18.33 18.33,-18.33 10.12,0 18.33,8.21 18.33,18.33 V 23.4 c 0,10.13 -8.21,18.33 -18.33,18.33 z"
   id="path52" />
		</g>
		<g
   id="g58">
			<path
   d="m 1253.95,41.73 c -10.12,0 -18.33,-8.21 -18.33,-18.33 v -516.34 c 0,-10.12 8.21,-18.33 18.33,-18.33 10.12,0 18.33,8.21 18.33,18.33 V 23.4 c 0,10.13 -8.21,18.33 -18.33,18.33 z"
   id="path56" />
		</g>
	</g>
</g>
</svg>
