<?xml version="1.0" encoding="utf-8"?>
<!-- Generator: Adobe Illustrator 25.1.0, SVG Export Plug-In . SVG Version: 6.00 Build 0)  -->
<svg version="1.1" id="图层_1" xmlns="http://www.w3.org/2000/svg" xmlns:xlink="http://www.w3.org/1999/xlink" x="0px" y="0px"
	 viewBox="0 0 1024 1024" style="enable-background:new 0 0 1024 1024;" xml:space="preserve">
<style type="text/css">
	.st0{fill:#E2E1DE;}
	.st1{clip-path:url(#SVGID_2_);}
</style>
<g>
	<g>
		<path id="SVGID_3_" class="st0" d="M758.94,1023.94H265.06c-146.36,0-265-118.64-265-265V265.06c0-146.36,118.64-265,265-265
			h493.88c146.36,0,265,118.64,265,265v493.88C1023.94,905.3,905.3,1023.94,758.94,1023.94z"/>
	</g>
	<g>
		<defs>
			<path id="SVGID_1_" d="M758.94,1023.94H265.06c-146.36,0-265-118.64-265-265V265.06c0-146.36,118.64-265,265-265h493.88
				c146.36,0,265,118.64,265,265v493.88C1023.94,905.3,905.3,1023.94,758.94,1023.94z"/>
		</defs>
		<clipPath id="SVGID_2_">
			<use xlink:href="#SVGID_1_"  style="overflow:visible;"/>
		</clipPath>
		<g class="st1">
			<path d="M825.62,783.96V462.29c0-0.8-0.08-1.58-0.16-2.37c-0.02-0.19-0.01-0.39-0.04-0.58c-0.17-1.3-0.48-2.56-0.86-3.8
				c-0.1-0.33-0.22-0.66-0.34-0.98c-0.46-1.28-0.99-2.54-1.67-3.72c0,0,0-0.01-0.01-0.01c0-0.01-0.01-0.01-0.01-0.01
				c-0.68-1.17-1.49-2.25-2.37-3.29c-0.23-0.28-0.47-0.55-0.71-0.82c-0.87-0.94-1.8-1.83-2.83-2.62c-0.18-0.14-0.38-0.24-0.56-0.37
				c-0.62-0.45-1.25-0.9-1.92-1.28L535.57,281.59c-7.1-4.1-15.84-4.1-22.94,0L234.05,442.43c-0.67,0.39-1.29,0.83-1.91,1.28
				c-0.18,0.13-0.38,0.24-0.56,0.38c-1.03,0.79-1.96,1.68-2.84,2.62c-0.24,0.26-0.48,0.53-0.71,0.81c-0.88,1.04-1.69,2.12-2.37,3.29
				c0,0.01-0.01,0.01-0.01,0.01s0,0.01-0.01,0.01c-0.68,1.18-1.21,2.43-1.67,3.72c-0.12,0.33-0.23,0.65-0.33,0.98
				c-0.38,1.24-0.69,2.5-0.86,3.8c-0.03,0.19-0.02,0.38-0.04,0.58c-0.08,0.79-0.16,1.57-0.16,2.37v321.67
				c0,8.19,4.37,15.77,11.47,19.87l278.58,160.84c0.69,0.4,1.4,0.72,2.12,1.04c0.18,0.08,0.35,0.19,0.54,0.27
				c1.21,0.5,2.46,0.87,3.72,1.15c0.34,0.08,0.68,0.14,1.03,0.2c1.35,0.24,2.7,0.41,4.07,0.41c1.36,0,2.72-0.17,4.07-0.41
				c0.35-0.06,0.69-0.13,1.03-0.2c1.26-0.29,2.51-0.65,3.72-1.15c0.19-0.08,0.36-0.18,0.54-0.27c0.72-0.32,1.43-0.65,2.12-1.04
				l278.58-160.84C821.25,799.73,825.62,792.16,825.62,783.96z M524.1,327.94l81.12,46.83L372.53,509.12l-81.12-46.83L524.1,327.94z
				 M501.16,905.07l-232.7-134.35v-268.7l85.95,49.62V663c0,12.67,10.27,22.94,22.94,22.94c12.67,0,22.94-10.27,22.94-22.94v-84.87
				l100.87,58.24L501.16,905.07L501.16,905.07z M524.1,596.63l-105.7-61.02l232.69-134.35l105.7,61.03L524.1,596.63z M779.74,770.72
				l-232.7,134.35v-268.7l232.7-134.34V770.72z"/>
			<g>
				<path d="M285.41,351.64c-10.12,0-18.33-8.21-18.33-18.33v-795.64c0-10.12,8.21-18.33,18.33-18.33s18.33,8.21,18.33,18.33v795.64
					C303.74,343.43,295.53,351.64,285.41,351.64z"/>
			</g>
			<g>
				<path d="M746.08,341.44c-10.12,0-18.33-8.21-18.33-18.33v-795.64c0-10.12,8.21-18.33,18.33-18.33s18.33,8.21,18.33,18.33V323.1
					C764.41,333.23,756.21,341.44,746.08,341.44z"/>
			</g>
			<g>
				<path d="M666.72,298.15c-10.12,0-18.33-8.21-18.33-18.33v-516.34c0-10.12,8.21-18.33,18.33-18.33s18.33,8.21,18.33,18.33v516.34
					C685.05,289.95,676.84,298.15,666.72,298.15z"/>
			</g>
			<g>
				<path d="M366.89,298.15c-10.12,0-18.33-8.21-18.33-18.33v-516.34c0-10.12,8.21-18.33,18.33-18.33s18.33,8.21,18.33,18.33v516.34
					C385.22,289.95,377.01,298.15,366.89,298.15z"/>
			</g>
		</g>
	</g>
</g>
</svg>
