<svg enable-background="new 0 0 1024 1024" version="1.1" viewBox="0 0 1024 1024" xml:space="preserve" xmlns="http://www.w3.org/2000/svg" xmlns:xlink="http://www.w3.org/1999/xlink"><defs>
		
		<clipPath id="SVGID_2_">
			<use xlink:href="#SVGID_1_"/>
		</clipPath>
		
	
			
			
			
			
			
		</defs>
<style type="text/css">
	.st0{fill:#E2E1DE;}
	.st1{clip-path:url(#SVGID_2_);}
</style>

	
		<path id="SVGID_3_" class="st0" d="m758.94 1023.9h-493.88c-146.36 0-265-118.64-265-265v-493.88c0-146.36 118.64-265 265-265h493.88c146.36 0 265 118.64 265 265v493.88c0 146.36-118.64 265-265 265z"/>
	
	<path d="m825.62 783.96v-321.67c0-0.8-0.08-1.58-0.16-2.37-0.02-0.19-0.01-0.39-0.04-0.58-0.17-1.3-0.48-2.56-0.86-3.8-0.1-0.33-0.22-0.66-0.34-0.98-0.46-1.28-0.99-2.54-1.67-3.72 0 0 0-0.01-0.01-0.01 0-0.01-0.01-0.01-0.01-0.01-0.68-1.17-1.49-2.25-2.37-3.29-0.23-0.28-0.47-0.55-0.71-0.82-0.87-0.94-1.8-1.83-2.83-2.62-0.18-0.14-0.38-0.24-0.56-0.37-0.62-0.45-1.25-0.9-1.92-1.28l-278.57-160.85c-7.1-4.1-15.84-4.1-22.94 0l-278.58 160.84c-0.67 0.39-1.29 0.83-1.91 1.28-0.18 0.13-0.38 0.24-0.56 0.38-1.03 0.79-1.96 1.68-2.84 2.62-0.24 0.26-0.48 0.53-0.71 0.81-0.88 1.04-1.69 2.12-2.37 3.29 0 0.01-0.01 0.01-0.01 0.01s0 0.01-0.01 0.01c-0.68 1.18-1.21 2.43-1.67 3.72-0.12 0.33-0.23 0.65-0.33 0.98-0.38 1.24-0.69 2.5-0.86 3.8-0.03 0.19-0.02 0.38-0.04 0.58-0.08 0.79-0.16 1.57-0.16 2.37v321.67c0 8.19 4.37 15.77 11.47 19.87l278.58 160.84c0.69 0.4 1.4 0.72 2.12 1.04 0.18 0.08 0.35 0.19 0.54 0.27 1.21 0.5 2.46 0.87 3.72 1.15 0.34 0.08 0.68 0.14 1.03 0.2 1.35 0.24 2.7 0.41 4.07 0.41 1.36 0 2.72-0.17 4.07-0.41 0.35-0.06 0.69-0.13 1.03-0.2 1.26-0.29 2.51-0.65 3.72-1.15 0.19-0.08 0.36-0.18 0.54-0.27 0.72-0.32 1.43-0.65 2.12-1.04l278.58-160.84c7.08-4.09 11.45-11.66 11.45-19.86zm-301.52-456.02 81.12 46.83-232.69 134.35-81.12-46.83zm-22.94 577.13-232.7-134.35v-268.7l85.95 49.62v111.36c0 12.67 10.27 22.94 22.94 22.94s22.94-10.27 22.94-22.94v-84.87l100.87 58.24zm22.94-308.44-105.7-61.02 232.69-134.35 105.7 61.03zm255.64 174.09-232.7 134.35v-268.7l232.7-134.34z"/>
				<path d="m303.74 0h-36.66v333.31c0 10.12 8.2101 18.33 18.33 18.33s18.33-8.2101 18.33-18.33v-333.31z"/>
			
				<path d="m764.41 0h-36.66v323.11c0 10.12 8.2101 18.33 18.33 18.33 10.13 0 18.33-8.2098 18.33-18.34v-323.1z"/>
			
				<path d="m685.05 0h-36.66v279.82c0 10.12 8.2101 18.33 18.33 18.33s18.33-8.2001 18.33-18.33v-279.82z"/>
			
				<path d="m385.22 0h-36.66v279.82c0 10.12 8.2101 18.33 18.33 18.33s18.33-8.2001 18.33-18.33v-279.82z"/>
			

</svg>
