<?xml version="1.0" encoding="utf-8"?>
<!-- Generator: Adobe Illustrator 25.1.0, SVG Export Plug-In . SVG Version: 6.00 Build 0)  -->
<svg version="1.1" id="图层_1" xmlns="http://www.w3.org/2000/svg" xmlns:xlink="http://www.w3.org/1999/xlink" x="0px" y="0px"
	 viewBox="0 0 1024 340" style="enable-background:new 0 0 1024 340;" xml:space="preserve">
<path d="M450.18,92.59v115.07c0,2.93,1.56,5.64,4.1,7.11l99.66,57.54c0.25,0.14,0.5,0.26,0.76,0.37c0.07,0.03,0.13,0.07,0.19,0.1
	c0.43,0.18,0.88,0.31,1.33,0.41c0.12,0.03,0.24,0.05,0.37,0.07c0.48,0.09,0.97,0.15,1.46,0.15c0.49,0,0.97-0.06,1.46-0.15
	c0.12-0.02,0.25-0.04,0.37-0.07c0.45-0.1,0.9-0.23,1.33-0.41c0.07-0.03,0.13-0.07,0.19-0.1c0.26-0.11,0.51-0.23,0.76-0.37
	l99.66-57.54c2.54-1.47,4.1-4.18,4.1-7.11V92.59c0-0.29-0.03-0.57-0.06-0.85c-0.01-0.07,0-0.14-0.01-0.21
	c-0.06-0.47-0.17-0.92-0.31-1.36c-0.04-0.12-0.08-0.23-0.12-0.35c-0.17-0.46-0.36-0.91-0.6-1.33c0,0,0,0,0,0c0,0,0,0,0-0.01
	c-0.24-0.42-0.53-0.81-0.85-1.18c-0.08-0.1-0.17-0.2-0.26-0.29c-0.31-0.34-0.64-0.65-1.01-0.94c-0.06-0.05-0.13-0.09-0.2-0.13
	c-0.22-0.16-0.45-0.32-0.69-0.46l-99.66-57.54c-2.54-1.46-5.67-1.46-8.21,0l-99.66,57.54c-0.24,0.14-0.46,0.3-0.68,0.46
	c-0.07,0.05-0.14,0.09-0.2,0.14c-0.37,0.28-0.7,0.6-1.01,0.94c-0.09,0.09-0.17,0.19-0.25,0.29c-0.31,0.37-0.61,0.76-0.85,1.18
	c0,0,0,0,0,0.01c0,0,0,0,0,0c-0.24,0.42-0.43,0.87-0.6,1.33c-0.04,0.12-0.08,0.23-0.12,0.35c-0.14,0.44-0.25,0.9-0.31,1.36
	c-0.01,0.07-0.01,0.14-0.01,0.21C450.2,92.03,450.18,92.31,450.18,92.59z M587.06,61.29l-83.24,48.06L474.8,92.59l83.24-48.06
	L587.06,61.29z M520.23,118.82l83.24-48.06l37.81,21.83l-83.24,48.06L520.23,118.82z M649.49,202.93l-83.24,48.06v-96.12
	l83.24-48.06V202.93z M466.59,202.93v-96.12l30.75,17.75v39.84c0,4.53,3.67,8.21,8.21,8.21c4.53,0,8.21-3.67,8.21-8.21v-30.36
	l36.08,20.83v96.12L466.59,202.93z"/>
<g>
	<g>
		<path d="M711.12,273.55c-0.74,0-1.5-0.11-2.26-0.34l-59.63-18.2c-4.09-1.24-6.39-5.57-5.14-9.66c1.24-4.07,5.54-6.38,9.66-5.14
			l59.63,18.2c4.09,1.24,6.39,5.57,5.14,9.66C717.5,271.41,714.43,273.55,711.12,273.55z"/>
	</g>
	<g>
		<path d="M672.09,301.67c-1.15,0-2.31-0.25-3.41-0.8l-55.86-27.53c-3.83-1.89-5.41-6.53-3.52-10.36c1.89-3.83,6.53-5.41,10.36-3.52
			l55.86,27.53c3.83,1.89,5.41,6.53,3.52,10.36C677.68,300.08,674.94,301.67,672.09,301.67z"/>
	</g>
</g>
<g>
	<g>
		<path d="M408.74,273.55c-3.22,0-6.22-2.02-7.32-5.23c-1.38-4.04,0.77-8.44,4.81-9.83l54.76-18.78c4.04-1.38,8.44,0.77,9.83,4.81
			c1.38,4.04-0.77,8.44-4.81,9.83l-54.76,18.78C410.42,273.42,409.57,273.55,408.74,273.55z"/>
	</g>
	<g>
		<path d="M447.77,301.67c-2.73,0-5.37-1.44-6.78-4c-2.06-3.74-0.7-8.45,3.04-10.51l50.98-28.11c3.74-2.06,8.44-0.7,10.51,3.04
			c2.06,3.74,0.7,8.45-3.04,10.51l-50.98,28.11C450.31,301.36,449.03,301.67,447.77,301.67z"/>
	</g>
</g>
<path d="M38.52,69.33h17.82v114.73h60.34v16.71H38.52V69.33z"/>
<path d="M185.36,69.33h16.15l56.25,131.44h-20.79l-13.19-32.49h-62.56l-13,32.49h-20.79L185.36,69.33z M217.3,152.69l-24.51-60.34
	h-0.37l-24.88,60.34H217.3z"/>
<path d="M284.13,69.33h23.39l72.4,108.05h0.37V69.33h17.83v131.44h-22.65L302.32,92.72h-0.37v108.05h-17.82V69.33z"/>
<path d="M704.54,112.77h16.71v13.55h0.37c1.12-2.35,2.6-4.48,4.45-6.41c1.86-1.92,3.93-3.55,6.22-4.92
	c2.28-1.36,4.79-2.44,7.52-3.25c2.72-0.8,5.45-1.21,8.16-1.21c2.73,0,5.2,0.37,7.43,1.11l-0.74,18.01
	c-1.36-0.37-2.72-0.68-4.08-0.92c-1.37-0.25-2.73-0.37-4.09-0.37c-8.17,0-14.42,2.29-18.75,6.87s-6.5,11.69-6.5,21.35v44.18h-16.71
	V112.77z"/>
<path d="M774.9,156.77c0-6.43,1.21-12.44,3.62-18c2.42-5.57,5.72-10.46,9.94-14.67c4.21-4.21,9.16-7.52,14.85-9.94
	c5.69-2.41,11.81-3.62,18.38-3.62c6.56,0,12.68,1.21,18.38,3.62c5.69,2.41,10.64,5.73,14.85,9.94c4.21,4.21,7.52,9.1,9.93,14.67
	c2.42,5.57,3.62,11.57,3.62,18c0,6.44-1.2,12.47-3.62,18.11c-2.41,5.63-5.72,10.52-9.93,14.66c-4.21,4.15-9.16,7.43-14.85,9.84
	c-5.69,2.41-11.82,3.62-18.38,3.62c-6.56,0-12.69-1.21-18.38-3.62c-5.7-2.42-10.65-5.69-14.85-9.84c-4.21-4.14-7.52-9.03-9.94-14.66
	C776.11,169.24,774.9,163.21,774.9,156.77z M792.73,156.77c0,4.46,0.68,8.58,2.04,12.35c1.37,3.78,3.28,7,5.76,9.66
	c2.47,2.66,5.51,4.76,9.1,6.31s7.61,2.32,12.07,2.32s8.47-0.77,12.07-2.32c3.58-1.55,6.62-3.65,9.1-6.31
	c2.47-2.66,4.39-5.88,5.75-9.66c1.36-3.77,2.04-7.89,2.04-12.35c0-4.45-0.68-8.57-2.04-12.35c-1.36-3.77-3.28-6.99-5.75-9.65
	c-2.48-2.66-5.51-4.76-9.1-6.31c-3.6-1.55-7.61-2.32-12.07-2.32s-8.48,0.77-12.07,2.32c-3.59,1.55-6.62,3.65-9.1,6.31
	c-2.48,2.67-4.39,5.88-5.76,9.65C793.41,148.2,792.73,152.32,792.73,156.77z"/>
<path d="M892.54,112.77h16.71v12.62h0.37c3.22-4.7,7.64-8.36,13.28-10.96c5.63-2.6,11.42-3.9,17.36-3.9c6.8,0,12.96,1.18,18.47,3.53
	c5.51,2.35,10.21,5.63,14.11,9.84c3.9,4.21,6.9,9.13,9,14.76s3.16,11.67,3.16,18.1c0,6.56-1.06,12.66-3.16,18.29
	c-2.1,5.63-5.11,10.52-9,14.67c-3.9,4.15-8.6,7.4-14.11,9.75c-5.51,2.35-11.67,3.53-18.47,3.53c-6.31,0-12.26-1.34-17.82-3.99
	c-5.57-2.66-9.84-6.28-12.81-10.86h-0.37v64.98h-16.71V112.77z M938.21,126.14c-4.45,0-8.48,0.77-12.07,2.32
	c-3.59,1.55-6.62,3.65-9.1,6.31c-2.48,2.67-4.39,5.88-5.75,9.65c-1.37,3.78-2.04,7.89-2.04,12.35c0,4.46,0.68,8.58,2.04,12.35
	c1.36,3.78,3.28,7,5.75,9.66c2.47,2.66,5.51,4.76,9.1,6.31s7.61,2.32,12.07,2.32s8.48-0.77,12.07-2.32s6.62-3.65,9.1-6.31
	c2.48-2.66,4.39-5.88,5.75-9.66c1.37-3.77,2.04-7.89,2.04-12.35c0-4.45-0.68-8.57-2.04-12.35c-1.36-3.77-3.28-6.99-5.75-9.65
	c-2.48-2.66-5.51-4.76-9.1-6.31C946.69,126.92,942.67,126.14,938.21,126.14z"/>
</svg>
