<?xml version="1.0" encoding="utf-8"?>
<!-- Generator: Adobe Illustrator 25.1.0, SVG Export Plug-In . SVG Version: 6.00 Build 0)  -->
<svg version="1.1" id="图层_1" xmlns="http://www.w3.org/2000/svg" xmlns:xlink="http://www.w3.org/1999/xlink" x="0px" y="0px"
	 viewBox="0 0 920 340" style="enable-background:new 0 0 920 340;" xml:space="preserve">
<path d="M365.68,92.59v115.07c0,2.93,1.56,5.64,4.1,7.11l99.66,57.54c0.25,0.14,0.5,0.26,0.76,0.37c0.07,0.03,0.13,0.07,0.19,0.1
	c0.43,0.18,0.88,0.31,1.33,0.41c0.12,0.03,0.24,0.05,0.37,0.07c0.48,0.09,0.97,0.15,1.46,0.15s0.97-0.06,1.46-0.15
	c0.12-0.02,0.25-0.04,0.37-0.07c0.45-0.1,0.9-0.23,1.33-0.41c0.07-0.03,0.13-0.07,0.19-0.1c0.26-0.11,0.51-0.23,0.76-0.37
	l99.66-57.54c2.54-1.47,4.1-4.18,4.1-7.11V92.59c0-0.29-0.03-0.57-0.06-0.85c-0.01-0.07,0-0.14-0.01-0.21
	c-0.06-0.47-0.17-0.92-0.31-1.36c-0.04-0.12-0.08-0.23-0.12-0.35c-0.17-0.46-0.36-0.91-0.6-1.33c0,0,0,0,0,0c0,0,0,0,0-0.01
	c-0.24-0.42-0.53-0.81-0.85-1.18c-0.08-0.1-0.17-0.2-0.26-0.29c-0.31-0.34-0.64-0.65-1.01-0.94c-0.06-0.05-0.13-0.09-0.2-0.13
	c-0.22-0.16-0.45-0.32-0.69-0.46l-99.66-57.54c-2.54-1.46-5.67-1.46-8.21,0l-99.66,57.54c-0.24,0.14-0.46,0.3-0.68,0.46
	c-0.07,0.05-0.14,0.09-0.2,0.14c-0.37,0.28-0.7,0.6-1.01,0.94c-0.09,0.09-0.17,0.19-0.25,0.29c-0.31,0.37-0.61,0.76-0.85,1.18
	c0,0,0,0,0,0.01c0,0,0,0,0,0c-0.24,0.42-0.43,0.87-0.6,1.33c-0.04,0.12-0.08,0.23-0.12,0.35c-0.14,0.44-0.25,0.9-0.31,1.36
	c-0.01,0.07-0.01,0.14-0.01,0.21C365.7,92.03,365.68,92.31,365.68,92.59z M502.56,61.29l-83.24,48.06L390.3,92.59l83.24-48.06
	L502.56,61.29z M435.73,118.82l83.24-48.06l37.81,21.83l-83.24,48.06L435.73,118.82z M564.99,202.93l-83.24,48.06v-96.12
	l83.24-48.06V202.93z M382.09,202.93v-96.12l30.75,17.75v39.84c0,4.53,3.67,8.21,8.21,8.21c4.53,0,8.21-3.67,8.21-8.21v-30.36
	l36.08,20.83v96.12L382.09,202.93z"/>
<g>
	<g>
		<path d="M626.62,273.55c-0.74,0-1.5-0.11-2.26-0.34l-59.63-18.2c-4.09-1.24-6.39-5.57-5.14-9.66c1.24-4.07,5.54-6.38,9.66-5.14
			l59.63,18.2c4.09,1.24,6.39,5.57,5.14,9.66C633,271.41,629.93,273.55,626.62,273.55z"/>
	</g>
	<g>
		<path d="M587.59,301.67c-1.15,0-2.31-0.25-3.41-0.8l-55.86-27.53c-3.83-1.89-5.41-6.53-3.52-10.36c1.89-3.83,6.53-5.41,10.36-3.52
			l55.86,27.53c3.83,1.89,5.41,6.53,3.52,10.36C593.18,300.08,590.44,301.67,587.59,301.67z"/>
	</g>
</g>
<g>
	<g>
		<path d="M324.24,273.55c-3.22,0-6.22-2.02-7.32-5.23c-1.38-4.04,0.77-8.44,4.81-9.83l54.76-18.78c4.04-1.38,8.44,0.77,9.83,4.81
			c1.38,4.04-0.77,8.44-4.81,9.83l-54.76,18.78C325.92,273.42,325.07,273.55,324.24,273.55z"/>
	</g>
	<g>
		<path d="M363.27,301.67c-2.73,0-5.37-1.44-6.78-4c-2.06-3.74-0.7-8.45,3.04-10.51l50.98-28.11c3.74-2.06,8.44-0.7,10.51,3.04
			c2.06,3.74,0.7,8.45-3.04,10.51L367,300.71C365.81,301.36,364.53,301.67,363.27,301.67z"/>
	</g>
</g>
<path d="M49.02,69.33h11.82c1.66,0,3,1.34,3,3v108.73c0,1.66,1.34,3,3,3h54.34c1.66,0,3,1.34,3,3v10.71c0,1.66-1.34,3-3,3H49.02
	c-1.66,0-3-1.34-3-3V72.33C46.02,70.67,47.36,69.33,49.02,69.33z"/>
<path d="M623.04,114.77h10.71c1.66,0,3,1.34,3,3v10.55h0.37c1.12-2.35,2.6-4.48,4.45-6.41c1.86-1.92,3.93-3.55,6.22-4.92
	c2.28-1.36,4.79-2.44,7.52-3.25c2.72-0.8,5.45-1.21,8.16-1.21c1.72,0,3.34,0.15,4.86,0.44c1.47,0.29,2.53,1.58,2.47,3.08
	l-0.49,11.98c-0.08,1.84-1.77,3.17-3.58,2.81c-0.22-0.04-0.43-0.08-0.65-0.12c-1.37-0.25-2.73-0.37-4.09-0.37
	c-8.17,0-14.42,2.29-18.75,6.87s-6.5,11.69-6.5,21.35v41.18c0,1.66-1.34,3-3,3h-10.71c-1.66,0-3-1.34-3-3v-82
	C620.04,116.12,621.39,114.77,623.04,114.77z"/>
<path d="M683.4,158.77c0-6.43,1.21-12.44,3.62-18c2.42-5.57,5.72-10.46,9.94-14.67c4.21-4.21,9.16-7.52,14.85-9.94
	c5.69-2.41,11.81-3.62,18.38-3.62c6.56,0,12.68,1.21,18.38,3.62c5.69,2.41,10.64,5.73,14.85,9.94c4.21,4.21,7.52,9.1,9.93,14.67
	c2.42,5.57,3.62,11.57,3.62,18c0,6.44-1.2,12.47-3.62,18.11c-2.41,5.63-5.72,10.52-9.93,14.66c-4.21,4.15-9.16,7.43-14.85,9.84
	c-5.69,2.41-11.82,3.62-18.38,3.62c-6.56,0-12.69-1.21-18.38-3.62c-5.7-2.42-10.65-5.69-14.85-9.84c-4.21-4.14-7.52-9.03-9.94-14.66
	C684.61,171.24,683.4,165.21,683.4,158.77z M701.23,158.77c0,4.46,0.68,8.58,2.04,12.35c1.37,3.78,3.28,7,5.76,9.66
	c2.47,2.66,5.51,4.76,9.1,6.31s7.61,2.32,12.07,2.32s8.47-0.77,12.07-2.32c3.58-1.55,6.62-3.65,9.1-6.31
	c2.47-2.66,4.39-5.88,5.75-9.66c1.36-3.77,2.04-7.89,2.04-12.35c0-4.45-0.68-8.57-2.04-12.35c-1.36-3.77-3.28-6.99-5.75-9.65
	c-2.48-2.66-5.51-4.76-9.1-6.31c-3.6-1.55-7.61-2.32-12.07-2.32s-8.48,0.77-12.07,2.32s-6.62,3.65-9.1,6.31
	c-2.48,2.67-4.39,5.88-5.76,9.65C701.91,150.2,701.23,154.32,701.23,158.77z"/>
<path d="M798.04,114.77h10.71c1.66,0,3,1.34,3,3v9.62h0.37c3.22-4.7,7.64-8.36,13.28-10.96c5.63-2.6,11.42-3.9,17.36-3.9
	c6.8,0,12.96,1.18,18.47,3.53c5.51,2.35,10.21,5.63,14.11,9.84c3.9,4.21,6.9,9.13,9,14.76s3.16,11.67,3.16,18.1
	c0,6.56-1.06,12.66-3.16,18.29c-2.1,5.63-5.11,10.52-9,14.67c-3.9,4.15-8.6,7.4-14.11,9.75c-5.51,2.35-11.67,3.53-18.47,3.53
	c-6.31,0-12.26-1.34-17.82-3.99c-5.57-2.66-9.84-6.28-12.81-10.86h-0.37v61.98c0,1.66-1.34,3-3,3h-10.71c-1.66,0-3-1.34-3-3V117.77
	C795.04,116.12,796.39,114.77,798.04,114.77z M840.71,128.14c-4.45,0-8.48,0.77-12.07,2.32s-6.62,3.65-9.1,6.31
	c-2.48,2.67-4.39,5.88-5.75,9.65c-1.37,3.78-2.04,7.89-2.04,12.35c0,4.46,0.68,8.58,2.04,12.35c1.36,3.78,3.28,7,5.75,9.66
	c2.47,2.66,5.51,4.76,9.1,6.31s7.61,2.32,12.07,2.32s8.48-0.77,12.07-2.32s6.62-3.65,9.1-6.31c2.48-2.66,4.39-5.88,5.75-9.66
	c1.37-3.77,2.04-7.89,2.04-12.35c0-4.45-0.68-8.57-2.04-12.35c-1.36-3.77-3.28-6.99-5.75-9.65c-2.48-2.66-5.51-4.76-9.1-6.31
	S845.17,128.14,840.71,128.14z"/>
<path d="M146.77,126.79c-1.22-1.26-1.11-3.32,0.26-4.42c3.96-3.15,8.41-5.59,13.35-7.31c5.99-2.1,11.98-3.15,17.98-3.15
	c6.23,0,11.59,0.78,16.09,2.34c4.49,1.56,8.18,3.66,11.06,6.3c2.88,2.63,5,5.66,6.39,9.08c1.38,3.42,2.07,6.98,2.07,10.7v43.51
	c0,3,0.06,5.75,0.18,8.27c0.06,1.35,0.14,2.67,0.24,3.95c0.14,1.75-1.23,3.24-2.99,3.24h-8.31c-1.57,0-2.89-1.21-3-2.78
	c-0.22-3.39-0.34-6.78-0.34-10.17h-0.36c-3.59,5.51-7.85,9.41-12.76,11.69c-4.92,2.28-10.61,3.42-17.08,3.42
	c-3.95,0-7.73-0.54-11.33-1.62c-3.59-1.08-6.74-2.7-9.44-4.85c-2.69-2.16-4.82-4.82-6.38-8c-1.56-3.18-2.34-6.86-2.34-11.06
	c0-5.51,1.23-10.13,3.69-13.84s5.81-6.74,10.07-9.08c4.25-2.34,9.23-4.01,14.92-5.04c5.69-1.01,11.78-1.53,18.25-1.53h8.87
	c1.66,0,3-1.34,3-3v-0.59c0-2.16-0.42-4.31-1.26-6.47c-0.84-2.16-2.1-4.1-3.78-5.84c-1.68-1.74-3.78-3.12-6.3-4.14
	c-2.52-1.02-5.51-1.53-8.99-1.53c-3.11,0-5.84,0.3-8.18,0.9c-2.34,0.6-4.47,1.35-6.39,2.25c-1.92,0.9-3.66,1.95-5.21,3.14
	c-0.81,0.62-1.6,1.23-2.37,1.81c-1.21,0.92-2.91,0.78-3.97-0.31L146.77,126.79z M190.22,158.3c-3.83,0-7.76,0.21-11.78,0.63
	c-4.01,0.42-7.67,1.23-10.97,2.43c-3.3,1.2-5.99,2.88-8.09,5.03c-2.1,2.16-3.15,4.92-3.15,8.27c0,4.92,1.64,8.45,4.95,10.61
	c3.3,2.15,7.76,3.24,13.4,3.24c4.43,0,8.21-0.75,11.33-2.25c3.11-1.5,5.63-3.45,7.55-5.85c1.92-2.39,3.3-5.06,4.14-8
	c0.84-2.93,1.26-5.84,1.26-8.72v-2.39c0-1.66-1.34-3-3-3H190.22z"/>
<path d="M249.5,114.08h10.18c1.66,0,3,1.34,3,3v10.12h0.36c2.04-4.55,5.58-8.24,10.61-11.06c5.03-2.82,10.85-4.23,17.44-4.23
	c4.07,0,8,0.63,11.78,1.89c3.78,1.26,7.07,3.21,9.89,5.84c2.82,2.64,5.06,6.02,6.74,10.16c1.68,4.13,2.52,9.02,2.52,14.65v51.84
	c0,1.66-1.34,3-3,3h-10.18c-1.66,0-3-1.34-3-3v-47.35c0-3.95-0.54-7.34-1.62-10.15c-1.08-2.82-2.52-5.1-4.31-6.84
	c-1.8-1.73-3.87-2.99-6.2-3.78c-2.34-0.78-4.76-1.16-7.28-1.16c-3.36,0-6.47,0.54-9.35,1.62c-2.87,1.08-5.39,2.79-7.55,5.13
	c-2.16,2.34-3.84,5.3-5.03,8.9c-1.2,3.6-1.8,7.85-1.8,12.76v40.87c0,1.66-1.34,3-3,3H249.5c-1.66,0-3-1.34-3-3v-79.22
	C246.5,115.42,247.84,114.08,249.5,114.08z"/>
</svg>
